<?xml version="1.0" encoding="utf-8"?>
<!-- Generator: Adobe Illustrator 21.0.2, SVG Export Plug-In . SVG Version: 6.00 Build 0)  -->
<svg version="1.1" id="Capa_1" xmlns="http://www.w3.org/2000/svg" xmlns:xlink="http://www.w3.org/1999/xlink" x="0px" y="0px"
	 viewBox="0 0 204 300" style="enable-background:new 0 0 204 300;" xml:space="preserve">
<style type="text/css">
	.st0{fill:#3D69A2;}
	.st1{fill:#FFFFFF;}
</style>
<title>Geolocalizador</title>
<path class="st0" d="M103.6,0C48.3-0.8,3,45.7,2.2,103.8C1,189.7,99.5,300,99.5,300S201,192.4,202.2,106.5
	C203,48.5,158.9,0.8,103.6,0z"/>
<path class="st1" d="M101.5,258.8c-8.7-0.1-18.6-4.5-18.6-11l37.3,0.4C120.2,254.7,110.2,258.9,101.5,258.8z"/>
<path class="st1" d="M130.3,240.8c-0.2,1.9-1.8,3.3-3.8,3.2l-49.8-0.5c-1.9,0.1-3.6-1.3-3.7-3.3v-2.1c0.1-1.9,1.8-3.4,3.7-3.2
	c0,0,0,0,0.1,0l49.8,0.5c1.9-0.1,3.6,1.4,3.7,3.3V240.8z"/>
<path class="st1" d="M130.4,227.9c-0.2,1.9-1.8,3.3-3.8,3.2l-49.8-0.5c-1.9,0.1-3.6-1.3-3.7-3.3v-2.1c0.2-1.9,1.8-3.3,3.8-3.2
	l49.8,0.5c1.9-0.1,3.6,1.4,3.7,3.3V227.9z"/>
<path class="st1" d="M130.5,215c-0.2,1.9-1.8,3.3-3.8,3.2l-49.8-0.5c-1.9,0.1-3.6-1.4-3.7-3.3v-2.1c0.2-1.9,1.9-3.3,3.8-3.2
	l49.8,0.5c1.9-0.1,3.6,1.3,3.7,3.3V215z"/>
<path class="st1" d="M101,189c-44.5-0.6-80.1-37-79.5-81.2c0.6-44.2,37.1-79.5,81.7-78.9s80.1,36.9,79.5,81.1
	C182.1,154.3,145.5,189.7,101,189z"/>
<path class="st0" d="M83.7,61.4c-5.3,13.1-8.1,28.9-8.3,47.5s2.3,34.4,7.5,47.6c5.1,13.2,11.4,19.8,18.8,19.9
	c7.4,0.1,13.8-6.4,19.2-19.5c5.4-13.1,8.1-28.9,8.2-47.5s-2.4-34.4-7.5-47.6S110.2,42.1,102.8,42C95.4,41.9,89,48.4,83.7,61.4z
	 M127.8,109.5c-0.1,17.7-2.8,32.7-7.8,45.1c-5.1,12.5-11.2,18.6-18.2,18.5c-7-0.1-13-6.3-17.9-18.9c-4.9-12.6-7.2-27.6-7.1-45.3
	s2.7-32.7,7.8-45.1c5.1-12.4,11.1-18.6,18.2-18.5c7.1,0.1,13,6.4,17.9,18.9C125.5,76.8,127.9,91.9,127.8,109.5L127.8,109.5z"/>
<path class="st0" d="M54.9,89.1c5.1,13.2,13.9,26.5,26.4,39.7s25,22.7,37.6,28.3c12.5,5.6,21.5,5.6,26.8,0.2
	c5.3-5.5,5.4-14.8,0.3-28c-5.1-13.2-13.9-26.4-26.4-39.7S94.6,67,82.1,61.4s-21.5-5.6-26.8-0.2S49.9,75.9,54.9,89.1z M118.6,90.6
	c11.9,12.6,20.2,25.2,25.1,37.7c4.9,12.5,4.7,21.4-0.3,26.6c-5,5.1-13.5,5.1-25.4-0.2c-11.9-5.3-23.8-14.2-35.7-26.9
	s-20.2-25.2-25-37.7s-4.8-21.4,0.3-26.5s13.5-5.1,25.4,0.2S106.8,78,118.6,90.6z"/>
<path class="st0" d="M82.9,156.8c12.7-5.3,25.4-14.4,38-27.4s21.6-26.1,27-39.1c5.3-13.1,5.4-22.4,0.1-27.9s-14.1-5.7-26.8-0.4
	S96,76.2,83.2,89.3s-21.7,26-27,39.1s-5.3,22.4-0.1,28S70.3,162,82.9,156.8z M84.3,90.3c12-12.4,24.1-21.1,36.1-26
	c12-5,20.5-4.9,25.5,0.3c5,5.2,4.9,14.1-0.2,26.6c-5.1,12.5-13.5,24.9-25.6,37.2c-12.1,12.3-24.1,21.1-36.2,26.1
	c-12,5-20.5,4.9-25.4-0.3s-4.9-14.1,0.1-26.6S72.2,102.6,84.3,90.3z"/>
<path class="st0" d="M56.4,128.6c12.6,5.6,27.8,8.5,45.5,8.7s33-2.4,45.6-7.7c12.7-5.3,19-11.8,19-19.6s-6.2-14.4-18.7-20.1
	c-12.6-5.6-27.7-8.5-45.5-8.7c-17.8-0.2-33,2.3-45.6,7.7s-18.9,11.9-19,19.6C37.6,116.3,43.8,123,56.4,128.6z M102.3,82.7
	c17,0.2,31.4,3,43.3,8.2c11.9,5.3,17.9,11.7,17.8,19.1c-0.1,7.4-6.1,13.6-18.1,18.6c-12,5-26.4,7.6-43.4,7.4s-31.3-3-43.3-8.3
	s-17.9-11.7-17.8-19c0.1-7.3,6.1-13.6,18.1-18.7C70.9,84.9,85.4,82.5,102.3,82.7z"/>
<path class="st0" d="M109.1,100.3c-4.5-4.8-12-5.1-16.8-0.6c-0.1,0.1-0.3,0.3-0.4,0.4c-2.4,2.4-3.7,5.6-3.7,9
	c-0.1,3.4,1.2,6.6,3.5,9.1c4.4,4.8,11.9,5.1,16.7,0.7c0.2-0.2,0.4-0.4,0.6-0.5C113.8,113.3,113.9,105.4,109.1,100.3z M101.7,98.3
	c-2.9-0.1-5.7,1.1-7.7,3.2v0c-2.1,2.2-3.2,5.1-3.3,8c0,2.9,1,5.8,3.1,8c1.3,1.5,3,2.5,4.9,3.1c0,0-0.1,0-0.1,0c0,0,0.1,0,0.1,0
	c-2.5-0.3-4.8-1.5-6.5-3.3c-2.1-2.3-3.1-5.2-3.1-8c0-2.9,1.1-5.8,3.2-8c2-2.1,4.8-3.3,7.7-3.2c0.5,0,1,0,1.5,0.1v0c0,0,0,0,0.1,0
	V98.3z"/>
</svg>
