<?xml version="1.0" encoding="utf-8"?>
<!-- Generator: Adobe Illustrator 21.0.2, SVG Export Plug-In . SVG Version: 6.00 Build 0)  -->
<svg version="1.1" id="Layer_1" xmlns="http://www.w3.org/2000/svg" xmlns:xlink="http://www.w3.org/1999/xlink" x="0px" y="0px"
	 viewBox="0 0 157 70" style="enable-background:new 0 0 157 70;" xml:space="preserve">
<style type="text/css">
	.st0{fill:#FFFFFF;}
</style>
<g>
	<g>
		<g>
			<g>
				<path class="st0" d="M56.8,54c-1.6,0-3.2-0.4-4.7-1.6l1.2-1.7c0.9,0.8,2.2,1.2,3.3,1.2c1.6,0,2.7-0.7,2.7-2.3
					c0-1.4-1.3-2.1-2.7-2.8c-2.3-1.2-4.6-2.2-4.6-5.2c0-2.4,1.7-4.1,4.6-4.2c1.6,0,3.1,0.5,4.3,1.3l-1.2,1.8c-1-0.7-1.8-1-3.2-1
					c-1.3,0-2.3,0.6-2.3,1.9c0,1.7,1.5,2.3,3.5,3.3c1.8,0.9,3.8,2.1,3.8,4.7C61.7,52.3,59.5,53.9,56.8,54z"/>
				<path class="st0" d="M65.3,53.7l-0.1-16.1l9,0l0,2.1l-6.8,0l0,5.1l6.6,0l0,2.1l-6.6,0l0,4.7l7.2,0l0,2.1L65.3,53.7z"/>
				<path class="st0" d="M86.1,53.8c-4.1,0-8.2-3.3-8.2-8.3c0-5,3.7-8.3,8.1-8.3c2.6,0,4.4,0.8,5.9,2.2L90.6,41
					c-1.4-1.1-2.8-1.6-4.6-1.6c-3.2,0-5.8,2.5-5.8,6.2c0,3.3,2.7,6.1,5.9,6.1c2.3,0,4.2-1.3,4.7-3.3l-4.8,0l0-2.1l7.4,0
					C93.4,50.7,89.9,53.8,86.1,53.8z"/>
				<path class="st0" d="M103.1,53.8c-3.7,0-6.3-2.4-6.3-6.3l0-10l2.2,0l0,10c0,3.1,2,4.3,4.1,4.3c2.1,0,4.1-1.2,4.1-4.3l0-10l2.2,0
					l0,10C109.4,51.2,106.7,53.8,103.1,53.8z"/>
				<path class="st0" d="M122.4,53.4l-6.5-7.5l0,7.5l-2.2,0l-0.1-16.1l5.2,0c3,0,5,2.1,5,4.7c0,2.6-2.2,4.6-4.6,4.6l5.9,6.7
					L122.4,53.4z M118.4,39.5l-2.6,0l0,5.5l2.6,0c2,0,3.1-1.2,3.1-3C121.5,40.9,120.5,39.5,118.4,39.5z"/>
				<path class="st0" d="M135.3,53.6c-4.6,0-8.3-3.5-8.3-8.3c0-4.7,3.5-8.3,8.1-8.3c5,0,8.3,3.6,8.3,8.3
					C143.5,50,139.9,53.6,135.3,53.6z M135.2,39.2c-3.5,0-5.9,2.6-5.8,6.1c0,3.6,2.8,6.2,6,6.2c3.1,0,5.9-2.4,5.9-6.2
					C141.2,41.8,138.7,39.2,135.2,39.2z"/>
			</g>
			<path class="st0" d="M16.9,53.8l0-11.4c-0.8,0.8-2,1.1-3.3,1.2l0-2.6c1.8-0.2,3.2-0.9,4.3-3.2l2.6,0l0.1,16.1L16.9,53.8z"/>
			<path class="st0" d="M33.2,46l-3.7,4.9l5.1,0l0,3l-11.1,0l6.7-9.2c0.7-0.9,0.9-1.5,0.9-2.6c0-1-0.7-1.8-1.7-1.8
				c-1.1,0-2.2,0.4-2.2,2.3l0,0.4l-3.3,0l0-0.4c0-3.5,2.7-5.1,5.5-5.1c2.8,0,5.2,1.5,5.3,4.6C34.7,43.7,34,44.8,33.2,46z"/>
			<path class="st0" d="M43,54c-2.5,0-4.4-0.9-5.8-2.4l1.9-2.2c1,0.9,2.4,1.5,3.9,1.5c1.5,0,2.6-0.8,2.6-2.1c0-1.5-1.1-1.9-3-1.9
				l-1,0l0-2.9l1.4,0c1.5,0,2.2-0.5,2.2-1.9c0-1-1-1.6-2.2-1.6c-1.4,0-2.3,0.2-3.2,1L38,39.2c1.6-1.3,3.1-1.8,5.2-1.8
				c2.7,0,5.4,1.7,5.4,4.3c0,1.6-0.8,2.9-2.3,3.4c1.7,0.5,2.7,1.9,2.7,3.6C49.1,51.8,46.7,54,43,54z"/>
		</g>
		<path class="st0" d="M56.7,28.3C56.1,21.4,50.2,16,43.3,16c-0.3,0-0.7,0-1,0c-6.4,0.5-11.4,5.3-12.3,11.4
			c-1.3-1.6-3.4-2.6-5.7-2.4c-1.8,0.1-3.4,1-4.6,2.3c-1.1,1.3-1.7,2.9-1.6,4.6c0,0.1,0,0.2,0,0.3c0,0.6,0.5,1.1,1.1,1.1
			c0.6,0,1.1-0.5,1.1-1.1c0-0.1,0-0.2-0.1-0.4c0-1.2,0.3-2.3,1.1-3.2c0.8-0.9,1.9-1.5,3.2-1.6c0.1,0,0.2,0,0.3,0
			c2.4,0,4.4,1.9,4.6,4.3c0,0,0,0.1,0,0.1l0.1,0c0,0.1,0,0.1,0,0.2c0,0.7,0.6,1.3,1.3,1.3c0.7,0,1.3-0.6,1.3-1.3
			c0-0.1,0-0.3-0.1-0.4l0,0c-0.1-0.3-0.1-0.7-0.1-1c-0.5-6.2,4.2-11.7,10.5-12.2c0.3,0,0.6,0,0.9,0c5.8,0,10.8,4.5,11.3,10.3
			l-1.7,0.1l3.2,4.8l2.5-5.2L56.7,28.3z"/>
	</g>
</g>
</svg>
