<?xml version="1.0" encoding="UTF-8"?>
<svg width="16px" height="16px" viewBox="0 0 16 16" version="1.1" xmlns="http://www.w3.org/2000/svg" xmlns:xlink="http://www.w3.org/1999/xlink">
    <!-- Generator: Sketch 48.2 (47327) - http://www.bohemiancoding.com/sketch -->
    <title>Shape Copy</title>
    <desc>Created with Sketch.</desc>
    <defs></defs>
    <g id="Page-1" stroke="none" stroke-width="1" fill="none" fill-rule="evenodd" stroke-linecap="round" stroke-linejoin="round">
        <path d="M13.8756447,8.72538685 L14.3906705,8.72538685 C14.9595523,8.72538685 15.4207221,8.26421705 15.4207221,7.69533527 C15.4207221,7.12645349 14.9595523,6.66528369 14.3906705,6.66528369 L8.72538685,6.66528369 C9.06979717,5.14431711 9.242552,3.58952367 9.24041264,2.03005158 C9.24041264,1.4611698 8.77924284,1 8.21036106,1 C7.64147928,1 7.18030948,1.4611698 7.18030948,2.03005158 C7.18030948,2.03005158 6.1502579,7.69533527 2.54507737,7.69533527 L1,7.69533527 L1,13.8756447 L3.57512895,13.8756447 C4.60518053,13.8756447 6.66528369,14.9056963 7.69533527,14.9056963 L12.8455932,14.9056963 C13.4144749,14.9056963 13.8756447,14.4445265 13.8756447,13.8756447 C13.8756447,13.306763 13.4144749,12.8455932 12.8455932,12.8455932 L13.360619,12.8455932 C13.9295007,12.8455932 14.3906705,12.3844234 14.3906705,11.8155416 C14.3906705,11.2466598 13.9295007,10.78549 13.360619,10.78549 L13.8756447,10.78549 C14.4445265,10.78549 14.9056963,10.3243202 14.9056963,9.75543843 C14.9056963,9.18655665 14.4445265,8.72538685 13.8756447,8.72538685" id="Shape-Copy" stroke="#A6A6A6" fill="#FFFFFF"></path>
    </g>
</svg>