<svg xmlns="http://www.w3.org/2000/svg" width="103" height="90" viewBox="0 0 103 90">
    <g fill="#000" fill-rule="nonzero">
        <path d="M100.267 7.447C96.965 3.134 92.407.402 86.954.194 81.47-.014 75.472 2.51 72.134 6.957c-.468.625-.86 1.324-1.055 2.027-1.291.861-2.517 2.398-3.05 3.743-.403 1.018-.645 2.256-.61 3.36.025.781.337 1.608.305 2.382-.07 1.643-.766 1.796-1.911 2.547-1.047.687-3.049 1.805-2.746 3.368.5 2.58 4.892.542 5.192 3.471.25 2.422.487 5.064 1.546 7.304.922 1.951 2.82 2.351 4.812 2.424 1.803.065 3.138-.44 3.878 1.54.344.921.642 2.08 1.218 2.902 1.242 1.775 3.794 1.56 5.686 1.195 2.802-.54 5.731-1.66 8.387-2.717 1.838-.732 2.995-1.873 2.542-3.931-.264-1.196-1.169-2.309-1.379-3.454-.304-1.664 1.637-2.956 2.548-4.05 1.828-2.199 3.32-4.545 4.2-7.27 1.551-4.806 1.79-10.147-1.43-14.351zM93.74 37.789c-.667.952-1.88 1.09-2.935 1.471-2.174.789-4.935 2.195-7.294 2.068-3.029-.162-2.42-2.871-3.91-4.68-.924-1.121-2.296-1.114-3.633-1.107-.975.005-2.182.189-3.11-.17-1.445-.56-1.623-1.945-1.954-3.235a65.689 65.689 0 0 1-.377-1.52c.584.057 1.17-.01 1.81-.142.854-.176 2.227-.332 2.86-.972.36-.365.082-.952-.405-.976-.838-.042-1.665.376-2.458.59-.676.183-1.377.178-2.057.25-.046-.286-.085-.571-.11-.857-.074-.869.01-1.73-.4-2.538-.662-1.3-2.44-1.81-3.806-1.929a3.189 3.189 0 0 1-.64-.107c.406-.474 1.094-.824 1.54-1.127.732-.497 1.538-.925 2.12-1.61 1.177-1.388.625-2.934.467-4.576-.179-1.873.408-4.204 1.675-5.806.181.461.512.894 1.046 1.272 1.99 1.407 4.508 1.204 6.885 1.044-.64.712-1.227 1.435-1.4 2.586-.21 1.408.433 2.436 1.636 3.136.745.434 1.756.456 2.457.896 1.236.775.462 2.45.286 3.675-.208 1.44-.129 2.79 1.408 3.403 1.301.52 3.79.712 5.074.069 1.957-.98.46-3.778 1.814-5.168.985-1.01 2.376-.266 2.625 1.003.196.995-.22 1.988-.555 2.892-.269.726-.668 1.327-.586 2.14.107 1.064.82 2.041 1.732 2.635-.752 1.184-1.052 2.508-.257 4.31.537 1.218 1.259 1.927.452 3.08zm3.298-11.518c-.667.933-1.48 1.738-2.215 2.535-2.062-.554-.136-3.689-.068-5.1.063-1.297-.314-2.933-1.31-3.862-2.187-2.039-5.144.2-5.676 2.54-.109.477-.024 2.022-.284 2.396-.654.935-2.521.33-3.035-.255-1.2-1.367.475-3.36-.154-5.034-.51-1.356-1.796-1.47-3.02-1.904-3.518-1.248-.209-3.465.766-5.035.405-.652-.124-1.481-.855-1.492-1.842-.029-5.371.97-6.97-.236-2.69-2.029 1.76-4.897 3.324-5.894 3.921-2.502 9.703-3.696 14.1-1.716 3.908 1.76 7.748 5.183 8.786 9.47 1.134 4.68-.682 9.8-3.39 13.587z"/>
        <path d="M74.248 18.243a1.186 1.186 0 0 0-.547-.468c-.484-.204-1.186-.048-1.429.468-.179.382-.432.685-.42 1.138.015.517.47 1.108 1.044 1.044.12-.013.23-.036.338-.064.26-.02.515-.123.706-.319.259-.263.296-.593.423-.917.097-.249.026-.662-.115-.882zM66.41 42.332c-1.2-1.956-3.059-3.558-4.79-5.035-1.254-1.07-1.913-2.362-2.224-3.788-.04-2.014.073-4.098.16-6.016.155-3.415.384-6.828.53-10.246.185-4.358 1.243-10.007-3.898-11.712-2.666-.884-5.605-1.03-8.379-1.292-3.402-.32-6.776-.729-10.188-.96-6.724-.453-13.451-.528-20.19-.507-2.935.01-5.785.355-8.593 1.255-2.355.754-3.452 2.079-4.065 4.396-1.526 5.772-.998 11.694-.904 17.58.045 2.82.122 5.98.62 8.75.435 2.407 2.853 2.967 5.032 3.313 3.076.488 6.259.367 9.363.477 3.33.119 6.652.027 9.98.155 3.862.15 7.764-.034 11.632-.032 3.243.002 7.185-.401 10.312.439 2.963.796 6.002 1.873 8.874 2.96 1.455.55 4.788 2.528 6.357 1.68.484-.262.656-.952.371-1.417zm-6.57-2.417c-2.294-.847-4.659-1.487-6.974-2.268-4.598-1.552-9.83-1.054-14.652-1.055-5.599-.001-11.231.18-16.819-.038-2.77-.108-5.55-.1-8.317-.223-1.31-.059-2.676-.154-3.956-.442-.754-.17-2.131-.437-2.555-1.16-.408-.697-.18-2.232-.22-2.991-.277-5.233-.607-10.386-.508-15.627.05-2.596.35-5.27 1.12-7.762.896-2.902 6.063-3.314 8.61-3.443 11.433-.578 23.013.442 34.369 1.64 1.64.174 3.337.356 4.935.796 1.91.525 2.826 1.42 3.16 3.41.474 2.813.04 5.929-.144 8.763-.2 3.07-.44 6.2-.396 9.276.009.58.002 1.17-.002 1.763-.362 2.119-.277 4.77.86 6.443 1.041 1.534 2.614 2.618 4.033 3.856l-2.545-.938zM36.987 66.877c-1.145-.752-1.842-.904-1.91-2.547-.033-.775.279-1.601.304-2.382.035-1.104-.207-2.342-.61-3.36-.533-1.345-1.759-2.882-3.05-3.743-.195-.703-.587-1.402-1.056-2.027-3.337-4.448-9.336-6.972-14.82-6.763-5.453.208-10.01 2.94-13.313 7.253-3.219 4.204-2.98 9.545-1.43 14.352.88 2.724 2.372 5.07 4.2 7.268.911 1.095 2.853 2.387 2.548 4.051-.21 1.145-1.115 2.257-1.378 3.454-.453 2.058.704 3.199 2.541 3.93 2.657 1.059 5.586 2.178 8.388 2.718 1.891.364 4.443.58 5.686-1.195.575-.823.874-1.981 1.218-2.901.74-1.982 2.074-1.476 3.877-1.542 1.992-.072 3.89-.472 4.813-2.423 1.058-2.24 1.296-4.882 1.545-7.304.301-2.93 4.692-.89 5.193-3.471.303-1.564-1.699-2.681-2.746-3.368zm-29.01 7.79c-.734-.797-1.548-1.602-2.214-2.535-2.708-3.786-4.523-8.907-3.39-13.587 1.04-4.287 4.879-7.71 8.787-9.47 4.397-1.98 10.178-.786 14.1 1.716 1.563.997 6.013 3.865 3.324 5.893-1.599 1.207-5.128.208-6.97.237-.732.01-1.26.84-.856 1.492.975 1.57 4.285 3.787.767 5.035-1.225.434-2.511.547-3.02 1.904-.63 1.674 1.046 3.667-.155 5.034-.513.584-2.38 1.19-3.034.255-.26-.374-.175-1.919-.284-2.397-.532-2.34-3.489-4.578-5.676-2.539-.997.929-1.373 2.564-1.31 3.861.068 1.412 1.994 4.547-.069 5.101zm28.862-4.764c-1.365.118-3.144.63-3.805 1.93-.41.806-.326 1.668-.4 2.537-.025.286-.064.571-.11.856-.68-.07-1.381-.066-2.057-.249-.794-.214-1.62-.632-2.458-.59-.487.024-.766.611-.405.976.633.64 2.006.796 2.86.972.64.133 1.226.198 1.81.141-.119.511-.249 1.02-.378 1.521-.33 1.29-.508 2.674-1.954 3.234-.927.36-2.134.176-3.109.17-1.338-.006-2.71-.013-3.633 1.108-1.49 1.809-.882 4.518-3.91 4.68-2.36.127-5.12-1.279-7.295-2.067-1.054-.383-2.267-.52-2.934-1.472-.807-1.152-.086-1.862.452-3.08.795-1.801.495-3.125-.257-4.31.913-.593 1.625-1.57 1.732-2.634.082-.814-.318-1.414-.586-2.14-.336-.905-.75-1.898-.555-2.892.249-1.27 1.64-2.014 2.625-1.003 1.355 1.39-.143 4.187 1.814 5.167 1.283.643 3.773.452 5.074-.068 1.537-.614 1.616-1.962 1.408-3.403-.176-1.225-.95-2.9.286-3.676.7-.44 1.712-.461 2.457-.895 1.203-.7 1.845-1.729 1.635-3.136-.172-1.152-.758-1.875-1.4-2.587 2.378.16 4.896.364 6.886-1.044.534-.378.865-.81 1.046-1.272 1.267 1.603 1.854 3.934 1.675 5.806-.158 1.642-.71 3.188.468 4.576.58.685 1.387 1.113 2.12 1.61.445.303 1.132.653 1.539 1.127-.127.038-.325.08-.64.107z"/>
        <path d="M30.528 64.105c-.243-.518-.945-.673-1.429-.469-.234.099-.41.256-.547.469-.141.22-.213.632-.115.881.127.324.164.654.422.918.192.195.446.297.707.318.107.028.218.05.338.064.575.064 1.029-.527 1.043-1.044.013-.453-.24-.756-.42-1.137zM98.026 54.288c-.612-2.317-1.71-3.642-4.065-4.396-2.807-.9-5.657-1.246-8.592-1.255-6.739-.021-13.466.054-20.19.508-3.412.23-6.786.638-10.188.959-2.774.261-5.713.407-8.379 1.291-5.14 1.705-4.083 7.355-3.898 11.713.146 3.418.375 6.83.53 10.246.087 1.918.2 4.001.16 6.016-.312 1.426-.97 2.717-2.224 3.787-1.731 1.477-3.59 3.08-4.79 5.036-.286.465-.113 1.154.37 1.416 1.57.848 4.903-1.129 6.358-1.68 2.872-1.086 5.911-2.163 8.874-2.96 3.126-.84 7.069-.436 10.312-.438 3.868-.002 7.77.181 11.633.032 3.327-.128 6.648-.036 9.979-.155 3.104-.11 6.286.01 9.363-.477 2.18-.346 4.597-.906 5.031-3.313.5-2.77.576-5.93.62-8.75.095-5.886.623-11.808-.904-17.58zm-1.793 26.301c-.424.724-1.802.99-2.555 1.16-1.28.289-2.646.384-3.956.442-2.767.124-5.547.115-8.317.223-5.588.219-11.22.037-16.819.038-4.822.001-10.054-.496-14.652 1.055-2.315.782-4.68 1.422-6.974 2.268l-2.544.938c1.419-1.238 2.991-2.322 4.033-3.856 1.137-1.672 1.222-4.324.86-6.442-.004-.594-.01-1.184-.002-1.763.044-3.077-.197-6.206-.396-9.277-.184-2.834-.618-5.95-.145-8.763.335-1.99 1.25-2.884 3.16-3.41 1.599-.44 3.296-.622 4.936-.795 11.356-1.199 22.936-2.219 34.368-1.64 2.547.128 7.715.54 8.611 3.442.77 2.492 1.07 5.166 1.12 7.762.099 5.241-.23 10.394-.508 15.627-.04.76.187 2.294-.22 2.991zM39.804 15.035c-.975-2.412-4.335-4.445-6.783-4.98-2.592-.566-5.429.166-7.05 2.337-1.567 2.1-2.302 5.416-1.157 7.858.486 1.036 1.236 1.874 2.114 2.597.889.731.967.602 1.23 1.57.066.244.098.516.123.794a3.76 3.76 0 0 0-.073 1.036c-.195.963-.141 2.175.174 2.97.49 1.237 2.23 1.878 3.46 1.871 1.42-.007 2.352-.81 2.92-2.045.342-.744.695-1.816.436-2.643.225-1.015-.299-2.263.225-3.138.405-.676 1.963-1.397 2.571-1.981 1.717-1.649 2.761-3.89 1.81-6.246zm-6.422 13.658c-.574 1.018-1.524 1.157-2.58.776-1.032-.372-1.241-.978-1.29-1.878.02.004.039.01.06.013 1.19.196 2.552-.166 3.765-.145.15.003.286.01.414.017-.05.404-.137.806-.369 1.217zm-2.14-6.022c-.218-1.299-.973-2.593-1.05-3.918.797-.159 1.634-.423 2.424-.406.75.015.408-.248.303.501-.083.592-.259 1.22-.407 1.797-.31 1.215-.7 2.395-.997 3.598-.086-.538-.19-1.07-.274-1.572zm7.248-4.388c-.81 1.844-2.534 2.546-3.965 3.753-1.197 1.008-.307 2.002-.733 3.302-.274.835-.372.64-1.298.657a1.8 1.8 0 0 0-.233.023c.465-1.417.705-3.042 1.099-4.454.316-1.134.99-2.848.627-4.025-.05-.159-.182-.325-.356-.356-1.2-.21-2.74.529-3.955.637-.297.027-.477.214-.509.51-.141 1.323.55 2.49.876 3.742.36 1.39.487 2.819.861 4.207-.223.019-.428.009-.583-.068-.64-.32-.422-.82-.464-1.406-.145-2.034-1.263-2.324-2.53-3.558-1.306-1.273-1.723-2.877-1.482-4.627.443-3.226 2.752-5.662 6.189-5.329 3 .29 8.012 3.45 6.456 6.992z"/>
        <path d="M86.33 63.705c-2.08-1.148-5.441-.6-7.96-.155a94.083 94.083 0 0 0-2.973.012c-.937-5.31-5.506-10.156-11.666-8.605-4.513 1.138-7.107 5.169-7.38 9.494a9.28 9.28 0 0 0 .515 5.074c2.102 5.32 8.484 6.518 13.376 4.384 1.482-.646 2.626-1.557 3.468-2.633 2.596.017 5.18-.206 7.78-.358 1.782-.104 5.185.228 5.915-1.88.51-1.473.48-4.475-1.075-5.333zm-25.203 8.734c-3.541-2.083-4.173-6.377-2.86-10.006 1.435-3.967 4.84-7.082 9.296-6.084 1.735.39 3.17 1.428 4.235 2.834.279.369 2.312 4.415 2.152 4.421-.354.014-.708.027-1.064.045-1.611.085-5.212-.601-6.286.853-.434.588-.348 1.572-.423 2.264-.11 1.012-.583 2.457.032 3.392.858 1.307 3.587 1.052 5.18 1.054-2.69 2.407-6.89 3.21-10.262 1.227zm12.97-6.845a7.668 7.668 0 0 1-1.465 4.238 55.589 55.589 0 0 1-1.658-.066c-1.563-.089-3.43.398-3.601-1.38-.096-.992.106-2.712 1.102-3.175.7-.325 2.172-.082 2.962-.114l2.658-.106c.006.2.008.402.001.603zm11.966 2.536c-.457 1.292-1.62 1.153-2.881 1.264-2.845.25-5.71.441-8.571.456.748-1.506 1.04-3.21.945-4.918.61-.025 1.221-.05 1.832-.073h.009l.04-.002c2.315-.091 4.629-.177 6.947-.249.018 0 .031-.008.048-.01.32.053.6.136.802.262.878.55 1.171 2.304.829 3.27zM86.99 55.476c-3.71-.375-7.767-.335-11.488 0-.415.037-.591.717-.107.793 3.74.588 7.836.643 11.595.251a.522.522 0 0 0 0-1.044z"/>
        <path d="M88.411 57.846c-3.71-.375-7.767-.335-11.488 0-.415.037-.591.717-.107.793 3.74.588 7.836.643 11.595.251a.522.522 0 0 0 0-1.044zM90.662 60.335c-3.71-.375-7.768-.335-11.489 0-.415.037-.59.717-.107.793 3.74.587 7.836.642 11.596.251a.522.522 0 0 0 0-1.044z"/>
    </g>
</svg>
