<?xml version="1.0" encoding="utf-8"?>
<!-- Generator: Adobe Illustrator 21.0.2, SVG Export Plug-In . SVG Version: 6.00 Build 0)  -->
<svg version="1.1" id="Capa_1" xmlns="http://www.w3.org/2000/svg" xmlns:xlink="http://www.w3.org/1999/xlink" x="0px" y="0px"
	 viewBox="0 0 500 250" style="enable-background:new 0 0 500 250;" xml:space="preserve">
<style type="text/css">
	.st0{fill-rule:evenodd;clip-rule:evenodd;fill:#FFFFFF;}
</style>
<g>
	<path class="st0" d="M250.1,35.9C119.4,35.9,13.5,76,13.5,125.4c0,49.4,105.9,89.4,236.6,89.4c130.6,0,236.4-40,236.4-89.4
		C486.5,76,380.6,35.9,250.1,35.9z M250.1,205.7c-125.4,0-227.3-35.7-227.3-80.2c0-44.4,101.9-80.5,227.3-80.5
		c125.7,0,227.4,36.2,227.4,80.5C477.5,170,375.8,205.7,250.1,205.7z"/>
	<path class="st0" d="M339.5,127.6c-5.3-0.6-12.1,4-17.5,10.7c-2.7,3.4-5.6,9.8-6.1,13.6c-0.6,3.8,0.5,7.6,1.8,8.7
		c1.4,1.1,7.5,4.3,16.9-5.3c5.3-5.3,10.5-14,10.5-14l-1.7-0.5C346.6,134.7,346,128.3,339.5,127.6z"/>
	<path class="st0" d="M250.1,51.6C128.4,51.6,30,84.7,30,125.4c0,40.9,98.4,74,220.1,74c121.6,0,220.3-33.1,220.3-74
		C470.3,84.7,371.6,51.6,250.1,51.6z M142.2,170.9c-13.3,0-25-8.7-25.3-24.3c-0.2-9.5,7.5-21,21.7-24.6c1.7,0,2.3,0.6,2.3,1.5
		c0,0.6-0.6,1.4-2,2c-4.1,1.5-11.3,9.6-11.3,17.1c0,5.6,3.5,11.9,9.5,13.3c1.7,0.5,3.2,0.3,4.7,0.3c14.8,0,31.4-16.6,49.4-41.9
		c-2.9,0.2-15.3,1.5-18.3,5c-1.4,1.1-2.3,0.5-2.6-0.8c0-0.3,0.5-1.4,0.9-2c4.9-5.5,19.5-6.7,23-7.2c13.1-20.1,29.8-32.9,34.5-33.9
		c-0.1,0-0.2-0.1-0.3-0.1c-11.7-2.7-22.4-5-30.8-5c-29.4,0-42.6,12.7-41.9,24.3c0.3,4.7,4.1,7.8,9.8,6.7c6.1-1.1,14.6-6.9,16.8-11.9
		c0.5-1.1,1.7-1.2,2.1-0.9c0.9,0.8,0.6,1.8,0.6,1.8c-0.8,5.9-9.9,22.4-25.8,22.4c-8.8,0-14.8-8.2-14.6-16.3
		c0.2-15.1,15.6-30.4,53.5-30.4c7.2,0,15.3,0.6,24.1,2.1c10.2,1.8,35.7,6.1,56.4,6.4c7.6,0,17.4,0.3,25.3-0.9
		c8.4-1.4,6.6-1.7,9.9-1.7c3.1,0,3.1,1.2,3.1,2.4c0,4.9-17.1,14.2-31.6,14.2c-21.3,0-43.5-9.7-55-12.8c0.4,0.4,0.8,1.1,0.4,2
		c-0.2,0.3-1.7,2-2.3,2.4c-3.1,2.7-13.4,9.5-24.7,28.5c9.2-0.5,19.8-2.3,19.8-2.3s-0.6-2-0.6-3.7c0.5-6.6,4.3-10.5,9.2-9.8
		c2.7,0.5,4.6,2.7,4.6,5.2c0,2.6-2,6.4-4,8.2c-1.4,1.1-2.9,2.1-4.7,3.1c0,1.7,2.3,3.1,4.3,3.2c-0.5,1.7-0.3,2.4-1.1,2.3
		c-4.6,0-6.4-4.4-6.4-4.4c-6.1,1.1-12,1.8-24.1,3.1C170.3,162.8,160.8,170.9,142.2,170.9z M351.4,162.8c6.6-0.3,18.6-12.8,21.5-15.9
		c0.6-0.8,1.7-2.1,2.3-2.1c0.6,0,1.8,0.6,1.8,1.5c0,0.6-1.4,2.9-2.4,4.3c-6.1,7.6-16.2,19.4-27.6,19.7c-5.6,0-7.8-2.3-8.5-6.7
		c-2.6,2.3-11.4,6.3-20.4,6.3c-7.5-0.2-10.5-4.6-12-8.1c-1.4-2.9-2-7.2-0.9-11.4c-4.1,2.1-7.9,2.4-13.4,2.3
		c-6.4-0.2-10.4-3.1-12.4-10.5c-7.3,13.4-7.6,13.9-15.1,27.9h-13l16.6-28.2c2.1-3.8,3.2-6.9,4-10.1c0.5-1.8-0.9-3.5-2.9-3.7
		c-2.1,0-5.6,2.1-9,5.3c0,0-8.5,9.2-14.8,18.5c-5.9,8.8-16.2,18.9-27.3,18.9c-8.1,0-15.4-4.4-16.9-13c0,0-0.8,2-7.9,6.1
		c-0.6,0.3-2.1,1.2-2.6,0.9c-1.4-1.2-2.1-2.7-2.3-3.8c0.5,0.2,1.4-0.6,4.3-2.9c5.6-4.3,6.9-7.6,6.9-7.6c1.4-2.9,3.8-7.5,5.5-10.7
		c4.6-9.2,12.5-18.5,25.5-18.9c2.1,0,2.7,0.9,3.2,1.7c1.2,0.9,0.8,2.7,0.8,2.7c-9.2,1.4-15.4,6.7-19.2,11.9
		c-2.3,3.4-4.7,8.8-5.2,12.8c-0.9,6.9,2.3,11.4,7,12.5c8.8,1.4,16.2-5,22-14.9c1.5-2.6,2.6-9.3,2.6-13c0-3.7-2-7.5-3.5-9
		c0-2.6,1.7-4.3,3.7-4.3c0.6,0,1.2,0,1.8,0.6c3.1,3.1,4.7,8.8,4.7,13.3c0,1.5,0,3.1-0.3,4.6c6.4-7.8,14.5-17.8,20.7-19.8
		c1.2-0.6,2.4-0.6,3.7-0.6c11.4-0.3,9.9,10.1,9.9,10.1c6.1-7,10.4-9.6,16-9.3c6.1,0.3,8.2,4.6,8.2,7.9c-0.2,4-3.1,8.5-8.1,8.7
		c-4.4,0-7-2.1-8.4-6.1c-2.9,1.1-4.3,3.1-4.9,7c-0.9,5,2.9,9,7.8,9c8.4,0,12.1-3.7,15.1-6.4c10.4-9.8,16.2-20,31.1-19.8
		c9,0.2,11.3,7.3,12.8,10.4l19.7-33.3h12.1l-32.6,57.8c-0.6,1.2-2.1,3.5-2,5.3C349.1,163.6,352.7,162.8,351.4,162.8z"/>
	<path class="st0" d="M231,103.8c0.9-0.9,2.4-3.7,2.1-5.5c-0.2-0.9-0.6-2-1.7-1.8c-2.3,0.5-3.7,1.5-4.3,3.8c-0.8,2.4-0.5,4.1,0,5.9
		C227.2,106.2,228.7,106.4,231,103.8z"/>
</g>
</svg>
