<svg xmlns="http://www.w3.org/2000/svg" width="102" height="99" viewBox="0 0 102 99">
    <g fill="#000" fill-rule="nonzero">
        <path d="M101.802 13.443c-.235-2.973-.458-6.903-2.104-9.457-1.431-2.22-4.356-2.425-6.727-2.78C89.59.701 86.017.734 82.603.742c-7.148.016-14.246.01-21.393.014C53.63.761 46.059-.122 38.474.257c-3.059.153-7.348.284-9.944 2.175-2.536 1.848-2.594 5.2-2.46 8.012.09 1.884.325 3.756.44 5.64.065 1.055.055 2.102.029 3.15a.602.602 0 0 0-.19.247c-3.2 2.57-6.168 5.363-9.425 7.866-2.744 2.11-6.466 4.645-8.322 7.61-1.795 2.867-1.885 7.37-2.236 10.66-.482 4.521-.833 9.11-.84 13.66-.003 2.398-.75 5.84.9 7.82-.842.05-1.674.191-2.487.516C.446 69.01-.021 72.732 0 76.085c.022 3.28 1.29 4.861 3.788 5.646-.27 3.101-.237 6.208-.272 9.321-.026 2.337-.623 4.982 1.703 6.356 2.366 1.399 5.55 1.208 8.174 1.37 3.168.193 6.774-.106 9.924-.535 2.84-.386 5.714-.764 8.546-1.192 2.11-.319 4.847-.907 5.911-2.975 1.162-2.256.674-5.723.45-8.112-.144-1.526-.135-3.562-.613-5.264 2.17-.691 4.047-1.91 4.23-4.232.233-2.943-.354-7.95-3.033-9.728-.791-.525-1.657-.721-2.55-.768 1.06-1.578 1.193-3.578 2.027-5.268.972-1.97 2.569-3.44 4.164-4.893 1.55-1.412 2.903-3.01 4.148-4.697.96-1.302 1.04-2.39 1.404-3.853 3.292-.09 6.584-.164 9.881-.135 7.562.068 15.133.957 22.687.732 5.647-.168 14.917.451 18.492-4.94 1.633-2.464 2.015-5.004 2.283-7.898.327-3.533.465-7.078.564-10.625.1-3.62.178-7.346-.107-10.952zM35.638 90.529c-.024 1.693.076 2.305-1.776 3.206-1.654.805-3.72.743-5.52.952-2.424.28-4.82.727-7.241.998-2.2.246-4.512.397-6.727.394-1.987-.003-4.991.187-6.77-.621-1.664-.757-1.429-1.69-1.424-3.365.003-1.333-.01-2.675-.049-4.008-.057-1.964-.07-3.934-.208-5.895.072.01.14.023.213.032 4.844.628 9.895.592 14.755.113 4.034-.399 8.121-.295 12.136-.761a41.52 41.52 0 0 0 2.015-.275c.277 1.708.373 3.56.504 5.168.11 1.345.112 2.712.092 4.062zm3.218-17.691c.158.991.694 2.698.338 3.63-1.106 2.897-7.963 2.495-10.308 2.598-2.446.109-4.887.28-7.326.536-3.253.34-6.586.59-9.86.428-1.343-.066-2.695-.318-4.037-.413-2.373-.169-4.6-.172-5.019-3.139-.184-1.3.003-2.796.335-4.057.785-2.991 4.024-2.79 6.503-2.932 6.248-.358 12.454-.253 18.692-.694.864-.061 1.797-.105 2.726-.212 1.205.02 2.415.012 3.674-.023 3.071-.085 3.828 1.418 4.282 4.278zm6.157-23.878c-.313.594-1.048 1.28-1.49 1.847-1.39 1.783-2.968 3.13-4.581 4.685-1.177 1.135-2.195 2.405-2.967 3.858-.83 1.562-.829 3.731-1.89 5.121-1.266 1.657-4.618 1.539-6.48 1.661-1.994.131-3.977.282-5.981.373-2.12.096-4.153.196-6.265.137-1.771-.05-4.588.31-6.152-.818-1.729-1.247-.99-5.223-.985-7.04.007-2.255.225-4.486.32-6.738.188-4.485.558-9.098 1.576-13.484.589-2.537 2.387-4.12 4.317-5.704 1.75-1.436 3.41-2.955 5.193-4.35a44.652 44.652 0 0 0 6.842-6.62c-.006.36-.01.721-.006 1.084.035 3.852-.38 7.66.022 11.493.008.072.021.14.04.204a96.53 96.53 0 0 0-2.865 2.843c-1.08 1.131-2.287 2.24-3.266 3.461-1.052 1.31-1.197 2.456-1.94 3.87-.431.824.717 1.48 1.235.723.633-.925.99-1.93 1.706-2.815.887-1.095 1.979-1.978 2.973-2.97 1.728-1.725 3.472-3.447 5.288-5.082 1.932-1.74 3.723-3.448 5.325-5.512.716-.923 1.537-1.893 2.061-2.944.644-1.29.465-2.347 2.288-2.262 3.868.182 5.242 4.46 5.246 7.663.003 3.194-.321 5.55-2.49 8.036-1.883 2.16-4.087 4.033-6.03 6.14-1.957 2.123-3.391 4.317-4.917 6.76-.504.808.589 1.516 1.245.963 1.506-1.267 2.464-2.804 3.79-4.237.474-.511.969-1.007 1.47-1.498.088.02.18.036.279.04 2.465.114 4.99-.348 7.475-.498-.116.627-.227 1.31-.386 1.61zm54.213-27.117c-.004 3.015-.048 6.08-.288 9.083-.233 2.914-.086 6.491-1.396 9.14-3.008 6.084-12.922 4.777-18.638 5.12-3.765.225-7.611-.351-11.392-.411-3.536-.057-7.062-.383-10.607-.38-3.568.002-7.123.087-10.687.19-1.881.053-3.8.34-5.701.488 2.213-2.09 4.638-4.244 5.871-7.084 2.178-5.013.95-12.833-4.166-15.531-1.96-1.033-4.9-1.997-6.502.055-.756.969-.93 2.33-1.553 3.38a27.473 27.473 0 0 1-3.441 4.595c-.73.785-1.49 1.543-2.258 2.294.569-5.525.989-11.175.668-16.698-.154-2.654-.637-5.364-.483-8.027.26-4.532 5.327-4.874 8.891-5.145 6.264-.476 12.605.078 18.86.393 6.196.313 12.66.418 18.841.137 2.945-.134 5.922-.116 8.87-.064 3.31.058 6.816.032 10.076.661 2.428.469 3.208.989 3.933 3.458.402 1.367.689 2.818.86 4.232.406 3.348.246 6.748.242 10.114z"/>
        <path d="M92.586 17.641c-1.063-3.585-2.847-8.707-5.792-11.233-.302-.26-.712-.347-1.07-.138-1.095.636-1.84 1.66-2.403 2.842-.92 1.19-1.634 2.908-2.142 3.886-.899 1.73-2.394 3.957-2.578 5.959-.37 4.024 6.21 3.377 8.704 3.204 3.355-.233 6.542-.264 5.28-4.52zm-1.547.949c-.242 1.988-2.055 1.644-3.45 1.766-1.466.129-2.89.043-4.355-.078-1.73-.143-2.775-.118-2.59-2.053.122-1.275 5.628-9.83 5.438-10.037 1.375 1.495 2.337 3.793 3.085 5.535.492 1.149 2.026 3.608 1.872 4.867zM89.263 25.6c-3.708-.873-7.991-.486-11.786-.488-4.821-.002-9.551-.44-14.35.412-.42.075-.416.767 0 .846 2.082.395 3.925.32 6.026.224 2.623-.12 5.224.226 7.84.219 3.965-.012 8.197.397 12.124-.13.56-.075.809-.926.146-1.082zM89.263 29.49c-3.708-.874-7.991-.488-11.786-.49-4.821-.002-9.551-.44-14.35.413-.42.075-.416.767 0 .845 2.082.395 3.925.32 6.026.225 2.623-.12 5.224.226 7.84.218 3.965-.011 8.197.398 12.124-.129.56-.075.809-.926.146-1.083zM89.263 33.378c-3.708-.874-7.991-.487-11.786-.489-4.821-.002-9.551-.44-14.35.413-.42.074-.416.766 0 .845 2.082.395 3.925.32 6.026.224 2.623-.12 5.224.226 7.84.219 3.965-.011 8.197.397 12.124-.13.56-.075.809-.926.146-1.082zM89.263 37.266c-3.708-.874-7.991-.487-11.786-.489-4.821-.002-9.551-.44-14.35.413-.42.075-.416.767 0 .845 2.082.395 3.925.32 6.026.225 2.623-.12 5.224.226 7.84.218 3.965-.011 8.197.398 12.124-.13.56-.075.809-.926.146-1.082zM53.016 7.574c-1.51-1.419-5.534-.707-7.348-.598-3.245.196-6.49-.36-9.719-.268-2.4.068-3.196 1.142-3.134 3.5.033 1.293.168 2.126.63 2.675.201.453.545.81 1.116.989 1.373.43 3.552.105 4.984.127 1.943.03 3.852-.188 5.788-.207 2.023-.021 5.905.344 7.494-1.171 1.122-1.07 1.355-3.952.19-5.048zm-2.454 4.125c-.76.276-2.405.19-3.172.263-1.39.133-2.785.15-4.18.283-2.151.206-4.266.138-6.426.155-.402.003-.763.064-1.09.048-.565-.35-.973-.858-1.135-1.415a15.2 15.2 0 0 1-.025-.953c.093-.384.314-.761.7-1.095.903-.781 3.987-.325 5.34-.313 1.722.017 3.373.157 5.094.037 1.303-.091 3.784-.494 5.022-.097 1.865.598 1.52 2.49-.128 3.087zM59.879 15.968c-2.174-.388-4.426-.28-6.619-.144-2.262.14-4.525.073-6.792.197-4.021.219-8.219.655-12.241.358-.475-.035-.692.719-.25.922 1.494.686 3.18.489 4.802.506 2.261.023 4.46-.062 6.714-.2 4.727-.29 9.726.265 14.386-.568.529-.094.53-.976 0-1.071z"/>
    </g>
</svg>
