<svg xmlns="http://www.w3.org/2000/svg" width="102" height="92" viewBox="0 0 102 92">
    <g fill="#000" fill-rule="nonzero">
        <path d="M101.851 20.196c-.555-.976-1.438-1.025-2.401-1.481-1.492-.706-2.856-1.693-4.243-2.575-3.056-1.945-6.426-4.063-9.79-5.419-2.084-.84-4.943-.297-7.121-.239-2.54.07-5.856-.324-8.41.38-2.565-3.279-6.203-5.737-10.424-5.467-3.964-3.405-9.756-4.79-14.858-2.807a11.588 11.588 0 0 0-2.523-1.575c-4.116-1.86-8.804-1.314-11.11 2.946-1.223 2.26-1.12 4.973-.617 7.669-5.586.24-11.17.682-16.76.724-5.618.042-10.655.415-12.963 6.296-3.374 8.601 7.502 10.737 15.406 10.375-.629 1.3-.563 3.035-.64 4.39-.18 3.144.089 6.316.784 9.386.554 2.446 1.327 4.62 3.405 6.15 2.521 1.855 5.961 2.727 7.396 5.823.802 1.73.501 3.774.64 5.627.106 1.436.351 2.862.524 4.29.1.821.189 1.74.44 2.553-1.92.275-3.77.836-5.199 1.747-3.176 2.024-2.688 6.06-2.487 9.343.137 2.235.043 4.483.024 6.72-.013 1.471.013 2.663 1.038 3.812 2.017 2.26 6.89 2.413 9.708 2.487 8.828.235 17.685 1.265 26.503.114 3.209-.419 6.752-.82 8.5-3.908 1.72-3.038 1.835-6.95 1.845-10.337.01-3.455 1.25-9.919-3.368-10.936a13.863 13.863 0 0 0-1.364-.226c.52-2.665-.078-5.69.216-8.41.374-3.471 1.831-6.354 4.044-8.989 3.452-4.11 7.084-8.736 7.42-14.376.056-.94.06-1.885.027-2.83 2.018-.494 4.737-.242 6.68-.338 2.166-.108 3.856-.194 5.739-1.318 2.19-1.307 4.357-2.634 6.566-3.914 2.298-1.331 4.86-2.577 6.977-4.17.481-.363.72-.947.396-1.517zm-71.094-6.278c.035-.001.064-.01.097-.013.397 1.6.847 3.147 1.147 4.532.544 2.512.86 5.212.896 7.93-2.327.621-5.29.246-7.67.356-.711.032-1.553.028-2.43.038 1.064-1.954 1.246-4.965 1.024-6.734-.285-2.267-1.08-4.194-2.479-5.734 3.138-.1 6.275-.284 9.415-.375zm-10.978.41c.176.206.359.412.533.658.968 1.374 1.613 3.122 1.857 4.77.385 2.602-.437 4.598-1.336 6.862a5.85 5.85 0 0 0-1.266-.242c.89-1.922 1.02-4.756.832-6.294-.177-1.447-.816-4.334-2.134-5.726.505-.007 1.01-.018 1.514-.028zm-5.596 12.397c-.592.038-1.162.044-1.69-.019-2.197-.26-4.493-.68-6.575-1.451-3.782-1.402-4.098-4.829-2.035-7.975 1.747-2.664 5.416-3.075 8.927-3.05.652 1.4 1.802 2.64 2.317 4.173.972 2.893.162 5.633-.944 8.322zm1.705-.163c1.591-3.956 1.796-9.288-1.456-12.297.918.031 1.8.073 2.607.09.775 1.733 1.6 3.438 1.889 5.341.282 1.864.147 4.874-1.009 6.669-.67.04-1.355.119-2.031.197zm48.345 42.12c.768.16 1.24.542 1.524 1.05.676 1.214.278 3.148.277 4.515-.003 2.095.034 4.181-.133 6.27-.141 1.76-.417 3.7-1.175 5.333-1 2.153-2.773 2.39-4.848 2.758-4.073.724-8.06.9-12.195.9-4.17.002-8.268-.523-12.428-.646-2.052-.061-4.072.058-6.122-.18-1.476-.17-4.753-.438-5.61-1.88-.758-1.273-.098-4.843-.112-6.301-.018-1.83-.222-3.65-.174-5.481.091-3.457 1.668-4.437 4.735-5.025 1.2-.23 2.411-.36 3.62-.494 1.193.019 2.479-.323 3.593-.395 1.356-.089 2.706-.03 4.062-.042 3.367-.03 6.718-.179 10.09-.11 4.37.088 8.56.013 12.925-.31.657-.049 1.325-.097 1.97.038zm1.999-21.841c-2.882 3.435-4.62 7.151-4.854 11.714-.059 1.148-.055 2.306-.094 3.456-.051 1.509.665 3.742-1.385 4.038-2.596.374-4.896.576-7.5.48-5.296-.195-10.577-.117-15.871 0-1.207.028-2.39.155-3.589.287-2.106.23-2.148-1.149-2.376-2.892-.351-2.684-.285-5.448-.708-8.107-.66-4.159-4.342-6.374-7.7-8.295-3.19-1.824-3.901-5.117-4.273-8.566-.225-2.082-1.283-8.242.8-9.595.85-.553 3.264-.264 4.336-.312 1.416-.064 2.803-.072 4.22-.078 1.738-.008 3.834.113 5.616-.215-.142 2.883-.618 5.732-1.504 8.343-.21.62.785 1.056 1.069.452 3.647-7.763 2.718-16.19.903-24.283-.471-2.101-1.08-4.691-.602-6.844.708-3.186 3.628-4.88 6.732-4.108 5.378 1.338 6.75 5.888 8.794 10.307.308.665 1.432.342 1.382-.375-.203-2.88-1.418-5.784-3.348-8.033.903-.1 1.81-.267 2.714-.27 2.213-.01 4.71.57 6.674 1.608 4.244 2.24 5.522 6.171 6.462 10.59.258 1.213 2.057.885 2.095-.285.107-3.22-.987-6.108-2.811-8.427 10.111 2.939 11.58 16.505 11.577 25.648-.002 5.428-3.459 9.828-6.76 13.762zm5.738-32.713a20.691 20.691 0 0 0-.736-1.307c1.79.18 3.78-.023 5.378-.103 2.044-.104 4.927-.559 7.105-.16-.772.583-1.373 1.482-1.506 2.325-.231 1.466.427 2.246 1.339 2.883-1.898-.126-3.87.301-5.734.48-1.148.11-2.765-.084-4.138.074a26.44 26.44 0 0 0-1.708-4.192zm12.09 14.595c-1.148.165-2.336.163-3.57.193-1.513.037-3.502-.013-5.138.302-.138-1.64-.343-3.277-.537-4.902 1.292.047 2.643-.174 3.9-.167 1.863.009 3.714-.172 5.568-.334-.33.893-.96 2.012-.94 2.844.02.827.255 1.505.717 2.064zm-9.377-5.544l-.016-.135a25.625 25.625 0 0 0-.569-3.2c3.128-.118 6.378-.199 9.431-.85a2.434 2.434 0 0 0-.39 1.022c-.17 1.265.723 1.584 1.16 2.37-3.111.19-6.544.034-9.616.793zm18.678 1c-2.111 1.182-4.245 2.323-6.258 3.52a7.362 7.362 0 0 1-1.517.68c-1.03-1.928-.636-3.18.698-5.057.15-.212.124-.538 0-.753-.703-1.21-2.715-2.52-.3-3.738.496-.25.432-.97 0-1.236-1.039-.642-2.005-.737-2.294-2.072-.239-1.1.331-2.017 1.216-2.624 1.21.479 2.465 1.339 3.622 1.896 1.36.656 2.624 1.518 3.931 2.275.63.364 1.243.751 1.855 1.14-.909.622-1.572 2.052-1.678 2.968-.094.82.09 2.224.725 3.002zm1.441-.817c-1.17-1.37-.632-3.179.43-4.572.603.383 1.209.762 1.83 1.119.318.182 1.248.492 1.972.819-1.351.931-2.779 1.797-4.232 2.634z"/>
        <path d="M57.957 73.387c-2.784-1.119-5.27.327-6.709 2.548a4.106 4.106 0 0 0-.74.983c-.705 1.29-.639 2.95-.032 4.265 1.553 3.364 5.688 3.526 8.352 1.487 3.036-2.325 3.017-7.72-.871-9.283zm-.438 7.735c-1.85 1.415-4.835 1.393-5.751-1.13-.792-2.18 1.436-4.553 3.522-4.773 1.445-.152 2.553.254 3.288 1.586.86 1.56.294 3.282-1.06 4.317z"/>
    </g>
</svg>
