<svg xmlns="http://www.w3.org/2000/svg" width="102" height="93" viewBox="0 0 102 93">
    <g fill="#000" fill-rule="nonzero">
        <path d="M35.202 46.957a16.817 16.817 0 0 0 2.187-4.883c3.142-.315 6.386-2.945 5.918-6.431-.312-2.332-2.547-3.94-4.743-3.943 1.133-2.302-.148-5.898-1.586-7.621-2.631-3.155-6.643-5.466-10.502-6.741-3.46-1.143-6.685-.701-9.864.416-2.354.398-4.527 1.332-6.529 3.032C7.038 23.372 4.26 26.748 3.6 30.812c-.204 1.257.024 2.544.628 3.462-.307.028-.597.09-.842.19C1.57 35.195-.013 37.412 0 39.396c.013 1.934 1.539 3.348 3.254 3.954.932.33 2.316.473 3.392.117.519 1.663 1.345 3.212 2.587 4.523 1.325 1.398 2.955 2.432 4.73 3.182-2.14 1.826-3.943 4.41-5.335 6.677-2.289 3.728-3.898 8.1-4.641 12.402-.779 4.51-1.608 9.193-1.299 13.785.232 3.449.447 6.693 4.28 7.674 4.305 1.101 8.974.909 13.37 1.09 2.18.09 4.347-.045 6.521-.207 2.329-.174 4.66-.008 6.962-.17 3.156-.221 6.115-.74 7.047-4.198 1.084-4.025.254-8.871-.024-12.974-.555-8.209-1.697-20.029-9.618-24.597 1.575-.916 2.955-2.134 3.976-3.697zm3.01-13.645c1.119.113 2.398.81 2.883 1.862 1.053 2.281-1.17 4.202-3.259 4.712l.01-.059c.267-1.956.383-4.45-.086-6.532.15 0 .3.002.451.017zM5.293 41.64c-1.092.091-2.465-.293-3.072-1.301-.677-1.123.131-2.658.965-3.495.796-.798 1.854-.737 2.832-.412-.143 1.667-.12 3.373.151 5.018-.286.08-.576.165-.876.19zm.407-9.451c-.25-.397-.308-.829-.252-1.271.125-1.004.834-2.062 1.206-2.89 2.275-5.054 6.957-8.119 12.172-9.068 1.266-.192 2.543-.285 3.825-.203 2.963.19 5.623 1.5 8.164 2.953 2.403 1.373 5.005 3.371 5.775 6.15.408 1.47.524 1.79-.862 2.59-1.233.713-1.441.765-2.49-.27-.7-.691-.907-1.65-1.606-2.343-.423-.419-1.043-.37-1.472 0-.794.68-1.459 1.74-2.702 1.477-.976-.206-1.808-1.473-2.24-2.257-.739-1.343-.588-3.03-1.592-4.217-.186-.22-.538-.286-.804-.213-1.452.397-2.332 2.073-3.242 3.163-.591.708-1.768 2.371-2.713 2.531-1.142.194-.972-.757-1.306-1.48-.23-.5-.866-.532-1.296-.34-1.443.645-2.71 2.858-3.829 4.012-1.123 1.158-3.159 4.178-4.736 1.676zM36.005 60.56c1.233 3.385 1.753 7.098 2.164 10.661.388 3.375.703 6.797.784 10.196.043 1.809.19 3.828-.17 5.61-.536 2.644-2.354 2.883-4.702 3.093-3.38.302-6.907.245-10.324.422-3.761.196-7.695.062-11.438-.347-1.594-.174-3.603-.082-5.11-.709-2.365-.983-2.262-3.705-2.386-5.896-.226-3.988.45-8.03 1.08-11.951 1.063-6.633 3.966-13.247 8.406-18.397.304 1.825.788 3.66 1.219 5.424.392 1.605.444 4.785 2.06 5.76 1.167.705 2.098-.248 2.782-1.188.126-.173.242-.355.363-.533-.232 1.823-.28 3.691-.307 5.501-.04 2.768-.425 5.518-.434 8.285-.008 2.729-.357 5.757.167 8.442.294 1.508 1.407 2.187 2.975 2.103 4.643-.25 3.182-9.161 2.916-11.973-.218-2.301-.494-4.6-.708-6.903-.14-1.514-.134-3.057-.182-4.587.714.929 1.56 1.267 2.52.25 1.503-1.593 1.518-4.768 2.01-6.755.24-.966.933-2.58 1.16-4.002 2.278 2.084 4.024 4.391 5.155 7.494zm-7.669-4.332c-.386 1.521-.581 3.102-1.02 4.607-.057.196-.42 1.725-.651 1.756-.59.079-1.148-1.387-1.303-1.746-.492-1.14-.711-2.317-1.031-3.483 2.46-.774 4.352-3.107 4.895-5.682.046.036.09.073.135.11.01.026.016.052.029.078.005.01-.443 1.946-.389 1.694-.195.9-.438 1.774-.665 2.666zM21.49 82.542c-.02-1.085-.01-2.173-.015-3.259-.01-2.178.015-4.311.158-6.484.257-3.897.443-7.94.213-11.848.431-.727.852-1.464 1.286-2.188.19.658.426 1.428.706 2.184-.246 3.333.034 6.49.29 9.82.156 2.02.428 4.036.513 6.057.048 1.122.098 2.247.12 3.37.026 1.288.255 3.454-.785 4.456-.823.792-2.031.897-2.36-.239-.168-.581-.115-1.27-.126-1.869zm.508-26.982c-2.316-.331-3.598-1.689-4.76-3.344 1.713.39 3.47.576 5.152.607a18.6 18.6 0 0 0 4.406-.449c-.885 1.921-2.352 3.535-4.798 3.186zm-.393 1.993c.135.023.267.03.4.044-.675.962-1.351 1.926-1.912 2.964-.324.601-.628 1.676-1.172 2.105-1.044.822-1.164-.869-1.383-1.764-.717-2.928-1.555-5.853-2.2-8.803l.034-.037c.108.88.7 1.823 1.144 2.449 1.124 1.585 3.185 2.72 5.09 3.042zm.033-6.845c-3.994-.14-8.379-1.341-11.2-4.35-2.876-3.066-2.558-7.057-3.009-10.91.137-.036.273-.07.416-.123 1.564-.57 2.72-1.89 3.838-3.065a42.14 42.14 0 0 0 2.044-2.275c.151-.184.324-.455.51-.735.077.24.215.473.502.697.674.528 1.603.57 2.407.354 1.063-.284 2.038-1.153 2.787-1.92.737-.754 1.853-3.198 2.81-3.75l.01.031c.107.412.186.83.239 1.253.148.743.252 1.425.594 2.103.53 1.056 1.4 2.001 2.372 2.672 1.875 1.294 3.315.554 4.762-.609.26.46.483.953.845 1.344.545.59 1.265 1.11 1.98 1.475.635.325 1.325.556 2.008.598.612 3.98.288 8.149-1.807 11.663-2.53 4.244-7.392 5.714-12.108 5.547zM93.849 46.957a16.817 16.817 0 0 0 2.187-4.883c3.142-.315 6.387-2.945 5.919-6.431-.313-2.332-2.547-3.94-4.744-3.943 1.133-2.302-.148-5.898-1.585-7.621-2.632-3.155-6.644-5.466-10.503-6.741-.22-.073-.438-.139-.656-.199 1.64-3.967 2.947-8.032 1.335-12.335-1.238-3.305-5.313-5.398-8.727-4.37-7.156 2.153-7.24 13.609-1.328 17.155-.162.054-.325.108-.488.165-2.354.398-4.526 1.332-6.528 3.032-3.045 2.586-5.823 5.962-6.484 10.026-.205 1.257.023 2.544.627 3.462a3 3 0 0 0-.842.19c-1.814.73-3.398 2.948-3.385 4.932.013 1.934 1.539 3.348 3.254 3.954.932.33 2.316.473 3.392.117.519 1.663 1.345 3.212 2.587 4.523 1.325 1.398 2.955 2.432 4.73 3.182-2.14 1.826-3.943 4.41-5.335 6.677-2.289 3.728-3.898 8.1-4.641 12.402-.779 4.51-1.608 9.193-1.299 13.785.232 3.449.447 6.693 4.28 7.674 4.305 1.101 8.974.909 13.37 1.09 2.18.09 4.347-.045 6.521-.207 2.329-.174 4.66-.008 6.962-.17 3.156-.221 6.115-.74 7.047-4.198 1.084-4.025.254-8.871-.024-12.974-.555-8.209-1.696-20.029-9.618-24.597 1.575-.916 2.955-2.134 3.976-3.697zm3.01-13.645c1.12.113 2.398.81 2.884 1.862 1.052 2.281-1.17 4.202-3.26 4.712l.01-.059c.267-1.956.383-4.45-.086-6.532.15 0 .301.002.452.017zm-22.923-22.71c-.682-3.232 1.082-8.115 4.957-8.273 3.99-.162 5.497 3.748 5.373 7.072-.056 1.504-.458 2.804-.923 4.084-1.684-1.128-5.848-.268-7.429 1.291-.947-1.296-1.69-2.803-1.978-4.174zm8.846 4.405c-.205.56-.402 1.128-.567 1.722-1.432-.134-2.832-.026-4.212.256-.01-.009-.017-.018-.027-.026a9.804 9.804 0 0 1-1.155-1.077c.682-.246 1.392-.635 1.923-.778.943-.254 1.96-.45 2.934-.316.41.057.751.163 1.104.219zM63.942 41.64c-1.093.091-2.465-.293-3.073-1.301-.677-1.123.131-2.658.966-3.495.795-.798 1.853-.737 2.831-.412-.143 1.667-.119 3.373.151 5.018-.286.08-.576.165-.876.19zm.406-9.451c-.25-.397-.308-.829-.252-1.271.125-1.004.834-2.062 1.206-2.89 2.275-5.054 6.957-8.119 12.172-9.068 1.266-.192 2.544-.285 3.825-.203 2.963.19 5.624 1.5 8.165 2.953 2.402 1.373 5.005 3.371 5.775 6.15.407 1.47.523 1.79-.863 2.59-1.233.713-1.44.765-2.49-.27-.7-.691-.906-1.65-1.606-2.343-.423-.419-1.042-.37-1.472 0-.793.68-1.458 1.74-2.702 1.477-.976-.206-1.808-1.473-2.24-2.257-.739-1.343-.588-3.03-1.591-4.217-.187-.22-.538-.286-.804-.213-1.452.397-2.333 2.073-3.243 3.163-.591.708-1.767 2.371-2.713 2.531-1.141.194-.972-.757-1.305-1.48-.23-.5-.867-.532-1.296-.34-1.443.645-2.71 2.858-3.83 4.012-1.123 1.158-3.159 4.178-4.736 1.676zM90.076 53.61c1.996 1.943 3.543 4.113 4.576 6.949 1.233 3.384 1.754 7.097 2.164 10.66.389 3.376.704 6.798.784 10.196.043 1.81.191 3.829-.17 5.61-.536 2.646-2.353 2.884-4.702 3.094-3.38.303-6.906.245-10.324.423-3.76.195-7.695.061-11.438-.348-1.593-.174-3.603-.082-5.11-.708-2.364-.984-2.262-3.706-2.386-5.897-.225-3.988.451-8.029 1.08-11.95 1.016-6.341 3.714-12.664 7.828-17.708-.132.686-.192 1.361-.253 1.83-.229 1.756.053 3.627 1.3 4.974 1.266 1.367 2.922 1.435 4.642 1.006 1.625-.406 2.603-1.255 3.431-2.448.68 1.021 1.34 2.031 2.51 2.577 1.47.685 2.662.496 3.852-.618 1.526-1.428 2.77-5.078 2.216-7.642zm-9.43 1.949c-2.317-.331-3.599-1.689-4.761-3.344 1.713.39 3.47.576 5.152.607a18.6 18.6 0 0 0 4.406-.449c-.884 1.921-2.352 3.535-4.797 3.186zm7.092-3.351c.014.081.041.166.087.253 1.124 2.104.823 4.98-.554 6.973-1.916 2.777-3.796-.144-5.104-1.881 2.672-.44 4.818-2.713 5.571-5.345zm-7.485 5.344c.162.027.322.039.482.053-.595 1.043-1.1 1.831-2.244 2.364-1.57.731-3.439.802-4.492-.832-.782-1.214-.695-2.624-.515-3.986.096-.726.064-2.158.57-2.899.162.823.697 1.677 1.109 2.258 1.124 1.585 3.185 2.72 5.09 3.042zm.032-6.844c-3.993-.142-8.378-1.342-11.2-4.35-2.876-3.067-2.557-7.058-3.009-10.912.137-.035.273-.07.416-.122 1.565-.57 2.72-1.89 3.838-3.065a42.225 42.225 0 0 0 2.044-2.275c.152-.184.325-.455.511-.735.076.24.215.473.501.697.675.528 1.603.57 2.407.354 1.063-.284 2.039-1.153 2.788-1.92.736-.754 1.852-3.198 2.81-3.75.003.01.005.019.01.031.106.412.186.83.238 1.253.149.743.253 1.425.594 2.103.53 1.056 1.401 2.001 2.373 2.672 1.874 1.294 3.315.554 4.761-.609.261.46.484.953.845 1.344.545.59 1.266 1.11 1.98 1.475.636.325 1.325.556 2.009.598.611 3.98.287 8.149-1.807 11.663-2.53 4.245-7.393 5.715-12.109 5.548z"/>
        <path d="M16.81 36.748c-.701-.736-1.683-.81-2.395-.036-.538.584-.923 1.614-.453 2.338.306.471.83.762 1.374.813.764.195 1.553-.063 1.926-.823.4-.814.15-1.66-.452-2.292zM30.185 37.029c-.432-.72-1.27-1.23-2.08-.767-.01.005-.019.012-.028.018-.045.01-.09.015-.133.03-.68.229-1.287 1.083-1.385 1.775-.265 1.873 2.411 2.482 3.477 1.239.573-.668.595-1.552.149-2.295zM26.816 43.564l-.153-.065c-.252-.109-.5-.103-.71.091-.329.305-.52.71-.784 1.066-.65.873-1.583 1.402-2.706 1.352-.832-.037-1.607-.377-2.27-.877-.443-.334-.616-.66-1.189-.747-.266-.04-.527.107-.53.405-.019 1.708 2.3 2.8 3.755 2.855 2.336.088 3.706-1.128 4.874-2.984.21-.334.102-.929-.287-1.096zM23.552 40.835c-.444-.016-.851.183-1.288.165-.441-.018-.76-.25-1.155-.408-.324-.13-.734.27-.597.599.236.566.715.966 1.313 1.122.33.087.72.094 1.056.03.31-.06.541-.227.828-.34.602-.24.548-1.142-.157-1.168zM74.968 36.748c-.702-.736-1.683-.81-2.395-.036-.538.584-.924 1.614-.453 2.338.306.471.83.762 1.374.813.764.195 1.552-.063 1.925-.823.4-.814.151-1.66-.451-2.292zM88.342 37.029c-.432-.72-1.27-1.23-2.08-.767-.01.005-.018.012-.027.018-.045.01-.09.015-.133.03-.681.229-1.288 1.083-1.385 1.775-.266 1.873 2.41 2.482 3.476 1.239.573-.668.595-1.552.15-2.295zM84.973 43.564l-.152-.065c-.253-.109-.5-.103-.71.091-.33.305-.52.71-.785 1.066-.65.873-1.582 1.402-2.706 1.352-.83-.037-1.607-.377-2.27-.877-.443-.334-.615-.66-1.188-.747-.267-.04-.528.107-.531.405-.018 1.708 2.3 2.8 3.755 2.855 2.336.088 3.706-1.128 4.874-2.984.21-.334.102-.929-.287-1.096zM81.71 40.835c-.444-.016-.852.183-1.289.165-.44-.018-.758-.25-1.154-.408-.325-.13-.735.27-.598.599.236.566.716.966 1.314 1.122.33.087.72.094 1.055.03.31-.06.542-.227.829-.34.602-.24.547-1.142-.158-1.168z"/>
    </g>
</svg>
