<?xml version="1.0" encoding="UTF-8"?>
<svg width="30px" height="30px" viewBox="0 0 30 30" version="1.1" xmlns="http://www.w3.org/2000/svg" xmlns:xlink="http://www.w3.org/1999/xlink">
    <!-- Generator: Sketch 48.2 (47327) - http://www.bohemiancoding.com/sketch -->
    <title>Group 9</title>
    <desc>Created with Sketch.</desc>
    <defs></defs>
    <g id="Page-1" stroke="none" stroke-width="1" fill="none" fill-rule="evenodd">
        <g id="Group-9" transform="translate(0.240909, 0.167969)">
            <circle id="Oval-Copy-2" fill="#255191" cx="14.84375" cy="14.5" r="14.5"></circle>
            <path d="M20.41854,13.7535846 L20.3952145,13.8468865 C19.9520304,18.2087515 14.84375,21.3810169 14.84375,21.3810169 C14.84375,21.3810169 9.7354696,18.2554024 9.26895997,13.823561 L9.26895997,13.7535846 C9.24563449,13.5903062 9.24563449,13.4037023 9.24563449,13.2170985 C9.24563454,10.1253447 11.7519962,7.61898306 14.84375,7.61898306 C17.9355038,7.61898306 20.4418655,10.1253447 20.4418655,13.2170985 C20.4418655,13.4037023 20.4418655,13.5669807 20.41854,13.7535846 Z M14.84375,15.4018123 C16.0503341,15.4018123 17.0284638,14.4236826 17.0284638,13.2170985 C17.0284638,12.0105144 16.0503341,11.0323847 14.84375,11.0323847 C13.6371659,11.0323847 12.6590362,12.0105144 12.6590362,13.2170985 C12.6590362,14.4236826 13.6371659,15.4018123 14.84375,15.4018123 Z" id="Combined-Shape-Copy-2" fill="#FFFFFF"></path>
        </g>
    </g>
</svg>