<?xml version="1.0" encoding="utf-8"?>
<!-- Generator: Adobe Illustrator 21.0.2, SVG Export Plug-In . SVG Version: 6.00 Build 0)  -->
<svg version="1.1" id="Capa_1" xmlns="http://www.w3.org/2000/svg" xmlns:xlink="http://www.w3.org/1999/xlink" x="0px" y="0px"
	 viewBox="0 0 566.9 203.9" style="enable-background:new 0 0 566.9 203.9;" xml:space="preserve">
<style type="text/css">
	.st0{fill:#FFFFFF;}
</style>
<title>Zarate_Municipio</title>
<path class="st0" d="M170.6,2.2c0-0.1,0-0.2,0-0.3l0,0c0-0.1,0-0.1-0.1-0.2s0-0.2-0.1-0.3s-0.1-0.1-0.1-0.2L170.2,1l-0.1-0.2
	c0,0,0,0,0-0.1c0,0-0.1-0.1-0.1-0.1l-0.2-0.2l-0.2-0.1c-0.1,0-0.2-0.1-0.3-0.1L169,0.1l-0.1-0.1l0,0c-0.1,0-0.2,0-0.3,0
	c-0.1,0-0.1,0-0.2,0H35.5C15.9,0.1,0.1,15.9,0,35.5v166c0,0,0,0.1,0,0.1c0,0.1,0,0.2,0,0.3l0,0c0,0.1,0,0.1,0.1,0.2
	c0,0.1,0,0.2,0.1,0.3c0,0.1,0.1,0.2,0.1,0.2l0.1,0.2c0,0.1,0.1,0.1,0.1,0.2c0,0,0,0,0,0.1c0,0,0.1,0.1,0.1,0.1
	c0.1,0.1,0.2,0.1,0.2,0.2c0.1,0.1,0.2,0.1,0.3,0.2c0.1,0,0.1,0.1,0.2,0.1l0.2,0.1h0.1c0.2,0,0.4,0.1,0.5,0.1h132.9
	c19.6,0,35.5-15.9,35.5-35.5V2.3C170.7,2.3,170.7,2.2,170.6,2.2z M35.5,4.7h120.6L84.9,33.2H4.8C6,17.1,19.4,4.7,35.5,4.7z
	 M4.7,37.9h76.9L4.7,191.6V37.9z M87,37.4l76.5-30.6L83.6,166.5L7.2,197.1L87,37.4z M135.1,199.2H14.5l71.3-28.5h80.1
	C164.7,186.7,151.3,199.2,135.1,199.2L135.1,199.2z M166,166H89.1L166,12.3V166z"/>
<path class="st0" d="M297.5,72.6c-3.5,0-6.9,0.2-10.3,0.7l0,0l11.4-15.5c1.4-1.9,3.6-3,6-3h20.1l-21.9,17.9h-0.5
	C300.7,72.6,299,72.5,297.5,72.6 M297.5,74.9c14.8,0,27.2,3.7,27.2,24.5v52.4h-17.4l-2.1-6.7c-5.5,5.3-12.8,8.2-20.4,8.1
	c-9.3,0-21.4-3.9-21.4-24.4s16.9-24.2,28.2-24.2h13.1v-5.4c0-7.4-3.8-8.3-10.7-8.3c-10.7,0-23.8,4.3-23.8,4.3V79.4
	C279.1,76.6,288.3,75,297.5,74.9 M304.8,115.6l-5.7,0.1c-11.3,0.3-15.7,3-15.7,12.7c0,7.8,3.6,10,8.7,10c4.5-0.1,8.8-1.4,12.7-3.7
	L304.8,115.6z M258.9,134.8h-36.5L258.5,69v-9.5c0-4.1-3.3-7.4-7.4-7.4l0,0h-49.5V69h36.2l-36.2,65.8v9.5c0,4.1,3.3,7.4,7.4,7.4
	h57.7C262.5,147.7,259.8,142.1,258.9,134.8 M365.2,93.3c3.8,0.2,7.6,0.7,11.4,1.4V75.7c-2.8-0.6-5.6-0.9-8.4-0.9
	c-9.3,0-14.1,9-14.1,9l-2.6-7.5H343c-4.1,0-7.4,3.3-7.4,7.4c0,0,0,0,0,0v68h19.9V96C355.5,96,360.8,93.3,365.2,93.3 M441.1,151.8
	V99.4c0-20.8-12.4-24.5-27.2-24.5c-9.2,0.2-18.4,1.7-27.2,4.6v15.8c0,0,13.2-4.2,23.8-4.2c6.8,0,10.7,0.8,10.7,8.3v5.4h-13.1
	c-11.3,0-28.2,3.6-28.2,24.2s12.1,24.4,21.4,24.4c7.6,0.1,14.9-2.9,20.4-8.1l2.1,6.7L441.1,151.8z M421.2,134.7
	c-3.8,2.3-8.2,3.6-12.7,3.7c-5.1,0-8.7-2.1-8.7-10c0-9.7,4.4-12.4,15.7-12.7l5.7-0.1L421.2,134.7z M566.9,114
	c0.7-32.3-16.4-39.2-30.6-39.2c-15.2,0-32,7.4-32,39.2c0,35,19.2,39.1,34.9,39.1c7.8-0.1,15.6-1.4,23.1-3.8v-15.8
	c0,0-13,3.9-23.1,3.9c-6.3,0-14.7-2-15.1-16.8h42.7L566.9,114z M536.3,87.8c7.3,0,10.8,4,11.1,20.2H524
	C524.3,92.9,527.7,87.8,536.3,87.8 M566.9,114c0.7-32.3-16.4-39.2-30.6-39.2c-15.2,0-32,7.4-32,39.2c0,35,19.2,39.1,34.9,39.1
	c7.8-0.1,15.6-1.4,23.1-3.8v-15.8c0,0-13,3.9-23.1,3.9c-6.3,0-14.7-2-15.1-16.8h42.7L566.9,114z M536.3,87.8c7.3,0,10.8,4,11.1,20.2
	H524C524.3,92.9,527.7,87.8,536.3,87.8 M231.6,201.5l-1.1-33.1h-4l-10,20.1l-10-20.1h-4l-1.1,33.1h4.6l0.3-17.3
	c0.1-4.5-0.2-9.1-0.2-9.1c1,2.9,2.2,5.7,3.6,8.4l6.8,12.5l6.7-12.5c1.4-2.7,2.6-5.6,3.7-8.4c0,0-0.3,4.7-0.2,9.1l0.3,17.3H231.6z
	 M254.2,202c6.6,0,11-3.3,11-10.9v-22.7h-4.7v23.4c0,4.5-2.8,6.3-6.3,6.3c-3.7,0-6.3-1.4-6.3-6.3v-23.4h-4.7v22.7
	C243.2,198.9,247.2,202,254.2,202 M299.8,201.5v-33.1H295v16.3c0.1,3.6,0.3,7.2,0.8,10.8c-1.2-3.4-2.7-6.7-4.4-9.8l-9.6-17.2h-4.7
	v33.1h4.7v-17c-0.1-3.5-0.3-7-0.8-10.4c1.3,3.2,2.8,6.4,4.5,9.5l10.1,17.9L299.8,201.5z M311.8,201.5h4.8v-33.1h-4.8V201.5z
	 M339.3,202c2.5,0,5.1-0.6,7.3-1.8v-4.1c-2.3,1.1-4.8,1.7-7.3,1.9c-3.6,0-7.3-1.8-7.3-12.6c0-11.8,4.4-13.6,7.9-13.6
	c2.3,0.1,4.6,0.7,6.7,1.8v-4c-2.1-1.1-4.4-1.7-6.7-1.6c-4.7,0-12.7,1.8-12.7,17.5C327.3,200.7,334.4,202,339.3,202 M354.9,201.5h4.8
	v-33.1H355L354.9,201.5z M376.6,191.2c10.2-0.2,16.6-3.1,16.6-12c0-9.6-6.1-10.8-13.9-10.8h-7.4v33.1h4.7L376.6,191.2 M379.5,172.3
	c5.1,0,8.9,0.5,8.9,6.9c0,6.2-3.4,8.1-11.8,8.5v-15.3L379.5,172.3 M401.9,201.5h4.8v-33.1h-4.8V201.5z M429,202
	c4.2,0,12.1-1.2,12.1-17s-7.8-17-12.1-17c-3.9,0-12.1,1-12.1,17S424.8,202,429,202 M429,171.5c3.5,0,7.3,2.5,7.3,13.5
	c0,11.4-4.2,13.5-7.3,13.5s-7.3-1.9-7.3-13.5C421.7,173.7,425.5,171.5,429,171.5 M503,74.9h-23.2V52.1h-12.5c-4.1,0-7.4,3.3-7.4,7.4
	v15.3h-12.8v13h12.8v45c0,17.8,10.4,20.4,20.6,20.4c5.6-0.1,11.1-1,16.4-2.8c0.5-0.2,6.1-2.4,11.3-4.4c-2.8-3.6-4.9-7.8-6.2-12.2
	l-5.6,1.4c-1.4,0.3-4.6,0.9-7.8,1.5c-4,0.7-7.9-2-8.6-6c-0.1-0.4-0.1-0.9-0.1-1.3V87.8h15.3L503,74.9z"/>
</svg>
